<?xml version="1.0" standalone="no"?>
<!DOCTYPE svg PUBLIC "-//W3C//DTD SVG 1.1//EN" "http://www.w3.org/Graphics/SVG/1.1/DTD/svg11.dtd" >
<svg xmlns="http://www.w3.org/2000/svg">
<metadata>
This is a custom SVG webfont generated by Font Squirrel.
Copyright   : Enigmatic 2003 by Starving4 Entertainment dartpuzzlersorg This font is licensed under the terms of the Design Science Licence httpdslorgcopyleftdsltxt
Designer    : Darren Rigby
Foundry     : Starving4 Entertainment
Foundry URL : httpdartcanadatripodcomObjets
</metadata>
<defs>
<font id="webfontuvI74Fbp" horiz-adv-x="1193" >
<font-face units-per-em="2048" ascent="1638" descent="-410" />
<missing-glyph horiz-adv-x="512" />
<glyph unicode=" "  horiz-adv-x="512" />
<glyph unicode="&#x09;" horiz-adv-x="512" />
<glyph unicode="&#xa0;" horiz-adv-x="512" />
<glyph unicode="!" horiz-adv-x="489" d="M0 119q0 -119 159.5 -119t159.5 119q0 121 -159.5 121t-159.5 -121zM0 1536l86 -1151h150l83 1151h-319z" />
<glyph unicode="&#x22;" horiz-adv-x="894" d="M0 1493q20 -92 106 -299h87q86 207 106 299q0 129 -149.5 129t-149.5 -129zM426 1493q20 -92 106 -299h86q86 207 107 299q0 129 -149.5 129t-149.5 -129z" />
<glyph unicode="#" horiz-adv-x="1406" d="M0 342h162l-76 -342h213l76 342h299l-76 -342h213l76 342h180v127h-154l136 598h188v127h-162l76 342h-213l-76 -342h-299l76 342h-213l-76 -342h-180v-127h149l-126 -598h-193v-127zM406 469l126 598h299l-131 -598h-294z" />
<glyph unicode="$" horiz-adv-x="1236" d="M0 406q0 -279 449 -279v-147h190v147q428 0 428 279v169q0 256 -428 343v342q86 0 86 -109v-84h319v127q0 279 -405 279v106h-190v-106q-428 0 -429 -279v-190q0 -213 410 -299l19 -5v-358q-129 0 -130 107v83h-319v-126zM342 1087v64q0 109 107 109v-318l-19 6 q-88 12 -88 139zM639 342v328q94 -8 94 -138v-83q0 -107 -94 -107z" />
<glyph unicode="%" horiz-adv-x="1536" d="M0 0h299l1067 1536h-299zM0 981q0 -193 319.5 -193t319.5 193v385q0 190 -320 190q-319 0 -319 -190v-385zM213 1024v299q0 86 106.5 86t106.5 -86v-299q0 -86 -106.5 -86t-106.5 86zM725 170q0 -190 319 -190q322 0 322 190v385q0 193 -322 193q-319 0 -319 -193v-385z M938 213v299q0 86 106.5 86t106.5 -86v-299q0 -86 -106.5 -86t-106.5 86z" />
<glyph unicode="&#x26;" horiz-adv-x="1529" d="M0 385v340q0 193 213 236q-127 102 -127 233v86q0 276 510 276q555 0 555 -276v-213h-320v170q0 129 -225 129q-201 0 -200 -125v-24q0 -65 49 -154l553 -598l-4 174h319v-297q0 -74 -63 -129l167 -213h-362l-23 27q-143 -59 -424 -47q-618 -1 -618 405zM319 426 q0 -256 299 -256q168 0 273 39l-469 516q-102 131 -103 -43v-256z" />
<glyph unicode="'" horiz-adv-x="446" d="M0 1126q276 0 276 291q0 119 -137 119q-139 0 -139 -119q0 -121 139 -121q0 -106 -139 -106v-64z" />
<glyph unicode="(" horiz-adv-x="702" d="M0 768q0 -852 555 -938v170q-236 131 -236 768t236 768v170q-555 -86 -555 -938z" />
<glyph unicode=")" horiz-adv-x="702" d="M0 0v-170q555 86 555 938t-555 938v-170q236 -131 236 -768t-236 -768z" />
<glyph unicode="*" horiz-adv-x="907" d="M127 1331l31 90l194 -4l56 185h94l55 -187l195 4l28 -88l-159 -110l63 -185l-74 -55l-155 119l-156 -117l-76 53l64 185z" />
<glyph unicode="+" horiz-adv-x="1024" d="M0 662v212h319v320h213v-320h322v-212h-322v-320h-213v320h-319z" />
<glyph unicode="," horiz-adv-x="489" d="M0 141q0 -141 160 -141q0 -150 -160 -150v-63q319 0 319 354q0 141 -159.5 141t-159.5 -141z" />
<glyph unicode="-" horiz-adv-x="1024" d="M0 662h854v212h-854v-212z" />
<glyph unicode="." horiz-adv-x="548" d="M0 139q0 -139 157.5 -139t157.5 139q0 143 -157.5 143t-157.5 -143z" />
<glyph unicode="/" horiz-adv-x="935" d="M-86 -43l838 1622h272l-836 -1622h-274z" />
<glyph unicode="0" d="M31 256q0 -276 481 -276t481 276v1024q0 276 -481 276t-481 -276v-1024zM350 299v938q0 106 162 106t162 -106v-938q0 -106 -162 -106t-162 106z" />
<glyph unicode="1" d="M283 1194h204v-1194h320v1536h-320q0 -127 -204 -127v-215z" />
<glyph unicode="2" horiz-adv-x="1236" d="M0 0v598q0 213 430 299l205 41q113 23 113 129v170q0 106 -216 106q-213 0 -213 -106v-170h-319v213q0 276 532 276q535 0 535 -276v-256q0 -213 -432 -299l-205 -43q-111 -23 -111 -127v-342h748v-213h-1067z" />
<glyph unicode="3" horiz-adv-x="1236" d="M0 256q0 -276 532 -276q535 0 535 276v299q0 256 -236 256q236 0 236 256v213q0 276 -535 276q-532 0 -532 -276v-213h319v170q0 106 213 106q215 0 216 -106v-213q0 -106 -109 -106h-277v-213h277q109 0 109 -107v-299q0 -106 -216 -106q-213 0 -213 106v170h-319v-213z " />
<glyph unicode="4" d="M0 276h610v-276h320v276h94v216h-94v1044h-213l-717 -1044v-216zM256 492l354 532v-532h-354z" />
<glyph unicode="5" horiz-adv-x="1236" d="M-20 256q0 -276 532 -276t532 276v598q0 276 -372.5 276t-372.5 -169v362h745v213h-1064v-811h319v86q0 106 213 106.5t213 -106.5v-512q0 -106 -213 -106t-213 106v170h-319v-213z" />
<glyph unicode="6" horiz-adv-x="1236" d="M-20 256v1024q0 276 532 276t532 -276v-213h-319v170q0 106 -213 106t-213 -106v-449q0 172 372.5 172.5t372.5 -278.5v-426q0 -276 -532 -276t-532 276zM299 299q0 -106 213 -106t213 106v340q0 109 -213 109t-213 -109v-340z" />
<glyph unicode="7" d="M0 1323h780q-334 -205 -458 -526q-125 -324 -183 -797h322q2 246 96 655q92 403 467 633v248h-1024v-213z" />
<glyph unicode="8" horiz-adv-x="1236" d="M-20 256q0 -276 532 -276t532 276v299q0 256 -233 256q213 0 213 256v213q0 276 -512 276t-512 -276v-213q0 -256 213 -256q-233 0 -233 -256v-299zM299 299v299q0 127 213 127t213 -127v-299q0 -150 -213 -150t-213 150zM319 1024v213q0 150 193 149.5t193 -149.5v-213 q0 -127 -193 -127t-193 127z" />
<glyph unicode="9" horiz-adv-x="1236" d="M-20 256v213h319v-170q0 -106 213 -106t213 106v449q0 -172 -372.5 -172.5t-372.5 278.5v426q0 276 532 276t532 -276v-1024q0 -276 -532 -276t-532 276zM299 897q0 -109 213 -109t213 109v340q0 106 -213 106t-213 -106v-340z" />
<glyph unicode=":" horiz-adv-x="489" d="M-20 141q0 -141 159.5 -141t159.5 141t-159.5 141t-159.5 -141zM-20 756q0 -141 159.5 -141.5t159.5 141.5q0 141 -159.5 141t-159.5 -141z" />
<glyph unicode=";" horiz-adv-x="489" d="M-20 141q0 -141 159 -141q0 -150 -159 -150v-63q319 0 319 354q0 141 -159.5 141t-159.5 -141zM-20 756q0 -141 159.5 -141.5t159.5 141.5q0 141 -159.5 141t-159.5 -141z" />
<glyph unicode="&#x3c;" horiz-adv-x="1024" d="M0 768l682 -555l172 172l-512 383l512 383l-172 172z" />
<glyph unicode="=" horiz-adv-x="1150" d="M127 469h897v213h-897v-213zM127 854h897v213h-897v-213z" />
<glyph unicode="&#x3e;" horiz-adv-x="1024" d="M0 385l170 -172l684 555l-684 555l-170 -172l512 -383z" />
<glyph unicode="?" horiz-adv-x="1236" d="M-20 1067v213q0 276 526 276q539 0 538 -276v-299q0 -231 -227 -268l-184 -60q-14 -25 -15 -55v-129h-319v160q0 182 207 225l186 76q33 20 33 74v233q0 106 -221 106q-205 0 -205 -106v-170h-319zM299 141q0 -141 159.5 -141t159.5 141t-159.5 141t-159.5 -141z" />
<glyph unicode="@" horiz-adv-x="1619" d="M-43 426v684q0 446 725 446q727 0 727 -446v-512q0 -236 -299 -236q-322 -23 -322 170q0 -170 -157 -170q-268 0 -269 236v33q0 266 320 266q106 0 106 102q0 68 -106.5 68t-106.5 -106h-213v43q0 233 320 233q322 0 322 -233v-429q0 -63 40 -63q43 0 43 63v492 q0 276 -405 276q-406 0 -406 -276v-598q0 -256 406 -256h469v-213h-469q-725 0 -725 426zM575 618q0 -86 106.5 -86t106.5 160v111q0 -78 -106.5 -78.5t-106.5 -106.5z" />
<glyph unicode="A" horiz-adv-x="1406" d="M-12 0l532 1536h240l532 -1536h-331l-138 385h-430l-137 -385h-268zM473 598h283l-146 451z" />
<glyph unicode="B" horiz-adv-x="1236" d="M-20 0h745q319 0 319 256v299q0 256 -296 256q276 0 276 213v256q0 256 -319 256h-725v-1536zM299 213v492h319q106 0 107 -107v-279q0 -106 -107 -106h-319zM299 918v405h299q106 0 107 -106v-193q0 -106 -107 -106h-299z" />
<glyph unicode="C" horiz-adv-x="1236" d="M-20 256q0 -276 532 -276t532 276v213h-319v-170q0 -106 -213 -106t-213 106v938q0 129 213 129t213 -129v-170h319v213q0 276 -532 276t-532 -276v-1024z" />
<glyph unicode="D" horiz-adv-x="1236" d="M-20 0h745q319 0 319 256v1024q0 256 -319 256h-745v-1536zM299 213v1130h319q106 0 107 -126v-898q0 -106 -107 -106h-319z" />
<glyph unicode="E" horiz-adv-x="1044" d="M-20 0v1536h874v-213h-555v-426h449v-215h-449v-469h555v-213h-874z" />
<glyph unicode="F" horiz-adv-x="1044" d="M-20 0h319v682h449v215h-449v426h555v213h-874v-1536z" />
<glyph unicode="G" horiz-adv-x="1236" d="M-20 256q0 -276 532 -276q299 0 348 170l68 -150h116v874h-630v-212h311v-363q0 -106 -213 -106t-213 106v938q0 106 213 106t213 -106v-170h319v213q0 276 -532 276t-532 -276v-1024z" />
<glyph unicode="H" horiz-adv-x="1150" d="M-20 0h319v662h340v-662h322v1536h-322v-662h-340v662h-319v-1536z" />
<glyph unicode="I" horiz-adv-x="638" d="M-20 0v170h83v1196h-83v170h489v-170h-84v-1196h84v-170h-489z" />
<glyph unicode="J" horiz-adv-x="1107" d="M-20 256q0 -276 469 -276t469 276v1280h-320v-1237q0 -106 -149.5 -106t-149.5 106v170h-319v-213z" />
<glyph unicode="K" horiz-adv-x="1150" d="M-20 0h319v571l63 115l300 -686h346l-424 958l360 578h-248l-397 -643v643h-319v-1536z" />
<glyph unicode="L" horiz-adv-x="1044" d="M-20 0h874v213h-555v1323h-319v-1536z" />
<glyph unicode="M" horiz-adv-x="1599" d="M0 0h236v1028l276 -1028h319l279 969v-969h320v1536h-343l-346 -1130l-356 1130h-385v-1536z" />
<glyph unicode="N" horiz-adv-x="1107" d="M0 0v1536h256l449 -831v831h233v-1536h-256l-446 831v-831h-236z" />
<glyph unicode="O" horiz-adv-x="1236" d="M-20 256v1024q0 276 532 276t532 -276v-1024q0 -276 -532 -276t-532 276zM299 299q0 -106 213 -106t213 106v938q0 106 -213 106t-213 -106v-938z" />
<glyph unicode="P" horiz-adv-x="1234" d="M-20 0v1536h659q406 0 405 -299v-340q0 -322 -405 -322h-340v-575h-319zM299 788h256q170 0 170 150v236q0 150 -170 149h-256v-535z" />
<glyph unicode="Q" horiz-adv-x="1236" d="M-20 256q0 -276 532 -276q162 0 193 2l90 -88l276 98l-108 96q86 74 81 168v1024q0 276 -532 276t-532 -276v-1024zM299 299v938q0 106 213 106t213 -106v-938l-160 168l-252 -86l199 -188q-213 0 -213 106z" />
<glyph unicode="R" horiz-adv-x="1236" d="M-20 0h319v662h319q106 0 107 -107v-469q0 -86 86 -86h319q-86 0 -86 86v426q0 256 -233 256q233 0 233 256v256q0 256 -362 256h-702v-1536zM299 874v449h319q106 0 107 -106v-236q0 -106 -107 -107h-319z" />
<glyph unicode="S" horiz-adv-x="1236" d="M-20 256q0 -276 532 -276t532 276v342q0 254 -430 340l-204 53q-111 33 -111 160v86q0 106 213 106t213 -106v-170h319v213q0 276 -532 276t-532 -276v-256q0 -213 430 -299l204 -53q111 -33 111 -160v-213q0 -106 -213 -106t-213 106v170h-319v-213z" />
<glyph unicode="T" horiz-adv-x="1155" d="M0 1323h379v-1323h313v1323h379v213h-1071v-213z" />
<glyph unicode="U" horiz-adv-x="1236" d="M-20 256v1280h319v-1237q0 -106 213 -106q256 0 256 106v1237h276v-1280q0 -276 -532 -276t-532 276z" />
<glyph unicode="V" horiz-adv-x="1402" d="M-20 1536l528 -1536h264l508 1536h-256l-342 -1118l-340 1118h-362z" />
<glyph unicode="W" horiz-adv-x="1859" d="M0 1536l406 -1536h303l145 811l135 -811h342l426 1536h-237l-287 -1087l-205 1087h-295l-143 -1032l-228 1032h-362z" />
<glyph unicode="X" horiz-adv-x="1372" d="M-12 0h284l318 575l340 -575h346l-481 799l469 737h-275l-311 -567l-346 567h-332l461 -760z" />
<glyph unicode="Y" horiz-adv-x="1351" d="M-12 1536l473 -981v-555h311v555l465 981h-256l-328 -729l-321 729h-344z" />
<glyph unicode="Z" horiz-adv-x="1064" d="M0 0h897v213h-555l555 1110v213h-897v-213h555l-555 -1110v-213z" />
<glyph unicode="[" horiz-adv-x="702" d="M-20 -170h512v213h-193v1450h193v213h-512v-1876z" />
<glyph unicode="\" horiz-adv-x="1087" d="M0 1579l768 -1622h319l-768 1622h-319z" />
<glyph unicode="]" horiz-adv-x="702" d="M0 43v-213h512v1876h-512v-213h193v-1450h-193z" />
<glyph unicode="^" horiz-adv-x="768" d="M2 1024l274 512h43l279 -512h-106l-193 170l-193 -170h-104z" />
<glyph unicode="_" d="M0 -127v-129h1194v129h-1194z" />
<glyph unicode="`" horiz-adv-x="446" d="M-20 1395q0 -311 319 -312v64q-160 0 -160 106q160 0 160 142q0 141 -159.5 141t-159.5 -141z" />
<glyph unicode="a" horiz-adv-x="1064" d="M-20 256v145q0 285 446 285q129 0 129 82v43q0 106 -129 107q-98 0 -98 -107v-43h-320v86q0 276 418 276q449 0 448 -276v-704q0 -150 87 -150h-322q-84 0 -84 115q0 -135 -180 -135q-395 0 -395 276zM299 299q0 -106 127 -106q129 0 129 157v187q0 -63 -129 -64 q-127 0 -127 -115v-59z" />
<glyph unicode="b" horiz-adv-x="1150" d="M-20 0v1579h319v-618q0 170 330 169q332 0 332 -276v-598q0 -276 -332 -276q-330 0 -330 170v-150h-319zM299 299q0 -106 170 -106t170 106v512q0 106 -170 106.5t-170 -106.5v-512z" />
<glyph unicode="c" horiz-adv-x="1150" d="M-20 256q0 -276 489 -276q492 0 492 276v170h-343v-127q0 -106 -149 -106q-170 0 -170 106v512q0 106 170 107q150 0 149 -107v-129h343v172q0 276 -492 276q-489 0 -489 -276v-598z" />
<glyph unicode="d" horiz-adv-x="1150" d="M-20 256q0 -276 329.5 -276t329.5 170v-150h322v1579h-322v-618q0 170 -329.5 169.5t-329.5 -276.5v-598zM299 299v512q0 106 170 106.5t170 -106.5v-512q0 -106 -170 -106t-170 106z" />
<glyph unicode="e" horiz-adv-x="1150" d="M-20 256q0 -276 489 -276q492 0 492 276v86h-322v-43q0 -106 -170 -106t-170 106v150h662v405q0 276 -492 276q-489 0 -489 -276v-598zM299 662v149q0 106 170 106.5t170 -106.5v-149h-340z" />
<glyph unicode="f" horiz-adv-x="716" d="M0 897h98v-897h320v897h129v213h-129v150q0 106 129 106v213h-203q-246 0 -246 -256v-213h-98v-213z" />
<glyph unicode="g" horiz-adv-x="1150" d="M-20 -106h319v-21q0 -66 170 -66t170 66v277q0 -170 -329.5 -170t-329.5 276v598q0 276 329.5 276t329.5 -169v149h322v-1280q0 -236 -492 -236q-489 0 -489 236v64zM299 299q0 -106 170 -106t170 106v512q0 106 -170 106.5t-170 -106.5v-512z" />
<glyph unicode="h" horiz-adv-x="1150" d="M-20 0h319v811q0 106 170 107q150 0 149 -107v-811h343v854q0 276 -332 276q-330 0 -330 -169v618h-319v-1579z" />
<glyph unicode="i" horiz-adv-x="489" d="M-39 1447.5q0 -147.5 178 -147.5q176 0 176 147.5t-176 147.5q-178 0 -178 -147.5zM-20 0h319v1110h-319v-1110z" />
<glyph unicode="j" horiz-adv-x="446" d="M-154 -406h154q299 0 299 222v1294h-319v-1173q0 -129 -134 -130v-213zM-39 1474.5q0 -151.5 178 -151.5q176 0 176 151.5t-176 151.5q-178 0 -178 -151.5z" />
<glyph unicode="k" horiz-adv-x="1064" d="M-20 0h319v272l74 142l170 -414h354l-299 705l256 405h-246l-309 -559v1028h-319v-1579z" />
<glyph unicode="l" horiz-adv-x="489" d="M0 0h319v1579h-319v-1579z" />
<glyph unicode="m" horiz-adv-x="1671" d="M-20 0h319v788q0 129 139 130q137 0 137 -130v-788h312v788q0 129 137 129.5t137 -129.5v-788h320v854q0 276 -289 276q-287 0 -348 -137q-47 137 -295 137q-250 0 -250 -169v149h-319v-1110z" />
<glyph unicode="n" horiz-adv-x="1150" d="M-20 0h319v788q0 129 170 129.5t170 -129.5v-788h322v854q0 276 -332 276q-330 0 -330 -169v149h-319v-1110z" />
<glyph unicode="o" horiz-adv-x="1150" d="M-20 256q0 -276 489 -276q492 0 492 276v598q0 276 -492 276q-489 0 -489 -276v-598zM299 299v512q0 106 170 106.5t170 -106.5v-512q0 -106 -170 -106t-170 106z" />
<glyph unicode="p" horiz-adv-x="1150" d="M-20 -406h319v556q0 -170 330 -170q332 0 332 276v598q0 276 -332 276q-330 0 -330 -169v149h-319v-1516zM299 319v469q0 129 170 129.5t170 -129.5v-469q0 -127 -170 -127t-170 127z" />
<glyph unicode="q" horiz-adv-x="1150" d="M-20 256v598q0 276 329.5 276t329.5 -169v149h322v-1516h-322v556q0 -170 -329.5 -170t-329.5 276zM299 319q0 -127 170 -126.5t170 126.5v469q0 129 -170 129.5t-170 -129.5v-469z" />
<glyph unicode="r" horiz-adv-x="1013" d="M-20 0h319v811q0 106 112.5 106.5t112.5 -106.5v-86h320v129q0 276 -272.5 276t-272.5 -169v149h-319v-1110z" />
<glyph unicode="s" horiz-adv-x="1150" d="M-20 256q0 -276 489 -276q492 0 492 276v150q0 237 -492 276q-150 25 -150 106v23q0 106 149.5 106.5t149.5 -106.5v-86h320v129q0 276 -469 276t-469 -276v-106q0 -258 469 -308q170 -25 170 -121v-20q0 -106 -170 -106t-170 106v86h-319v-129z" />
<glyph unicode="t" horiz-adv-x="737" d="M-20 897v213h118v340h320v-340h129v-213h-129v-555q0 -129 129 -129v-213h-150q-299 0 -299 256v641h-118z" />
<glyph unicode="u" horiz-adv-x="1150" d="M-20 256q0 -276 329.5 -276t329.5 170v-150h322v1110h-322v-791q0 -127 -170 -126.5t-170 126.5v791h-319v-854z" />
<glyph unicode="v" horiz-adv-x="1185" d="M-8 1110l418 -1110h282l383 1110h-268l-232 -791l-229 791h-354z" />
<glyph unicode="w" horiz-adv-x="1423" d="M0 1110l248 -1110h276l138 623l137 -623h276l248 1110h-213l-154 -717l-125 717h-276l-133 -717l-146 717h-276z" />
<glyph unicode="x" horiz-adv-x="1120" d="M-20 0h268l217 354l209 -354h346l-358 594l337 516h-247l-209 -346l-211 346h-332l350 -586z" />
<glyph unicode="y" d="M-8 1110h340l270 -729l252 729h238l-502 -1294q-70 -221 -244 -222h-158v213h111q53 0 80 64l49 113z" />
<glyph unicode="z" horiz-adv-x="1024" d="M0 0h854v213h-500l500 684v213h-854v-213h500l-500 -684v-213z" />
<glyph unicode="{" horiz-adv-x="724" d="M0 682q106 0 106 -127v-428q0 -297 363 -297h86v213h-63q-66 0 -66 84v471q0 170 -170 170q170 0 170 170v471q0 84 66 84h63v213h-86q-362 0 -363 -297v-428q0 -127 -106 -127v-172z" />
<glyph unicode="|" horiz-adv-x="342" d="M-25 -385v2263h175v-2263h-175z" />
<glyph unicode="}" horiz-adv-x="724" d="M0 43v-213h86q362 0 363 297v428q0 127 106 127v172q-106 0 -106 127v428q0 297 -363 297h-86v-213h63q63 0 64 -84v-471q0 -170 172 -170q-172 0 -172 -170v-471q0 -84 -64 -84h-63z" />
<glyph unicode="~" horiz-adv-x="1150" d="M0 639v43q0 256 342 256q172 0 203 -84q31 -86 137 -86t106 86v43h193v-43q0 -256 -342 -256q-170 0 -201 84q-31 86 -139 86q-106 0 -106 -86v-43h-193z" />
<glyph unicode="&#xa1;" horiz-adv-x="382" d="M213 991q0 119 -159.5 119t-159.5 -119q0 -121 159.5 -121t159.5 121zM213 -426l-86 1151h-150l-83 -1151h319z" />
<glyph unicode="&#xa2;" horiz-adv-x="1150" d="M-20 469v598q0 276 339 276v193h299v-193q342 0 343 -276v-170h-322v127q0 106 -170 106t-170 -106v-512q0 -106 170 -106t170 106v127h322v-170q0 -276 -343 -276v-193h-299v193q-339 0 -339 276z" />
<glyph unicode="&#xa3;" horiz-adv-x="1386" d="M0 0v213q170 0 170 160v289h-170v212h170v418q0 264 500 264q504 0 504 -264v-225h-320v166q0 111 -182 110q-180 0 -180 -114v-355h319v-212h-319v-226q0 -180 -130 -223h832v-213h-1194z" />
<glyph unicode="&#xa4;" horiz-adv-x="1320" d="M-106 532v173h86v126h-86v173h86v276q0 276 532 276t532 -276v-213h-319v150q0 127 -213 126.5t-213 -126.5v-213h383l-43 -173h-340v-126h299l-43 -173h-256v-213q0 -127 213 -126.5t213 126.5v150h319v-213q0 -276 -532 -276t-532 276v276h-86z" />
<glyph unicode="&#xa5;" horiz-adv-x="1345" d="M-8 1536h354l307 -729l328 729h256l-465 -981v-43h125v-86h-125v-84h125v-86h-125v-256h-311v256h-119v86h119v84h-119v86h119v43z" />
<glyph unicode="&#xa6;" horiz-adv-x="368" d="M127 -373v969h115v-969h-115zM127 946v961h115v-961h-115z" />
<glyph unicode="&#xa7;" d="M0 20h276v-40q0 -129 236 -129.5t236 129.5v83q0 113 -236 173q-512 100 -512 296v173q0 182 158 237q-158 90 -158 232v169q0 213 512 213t512 -213v-126h-276v43q0 127 -236 126.5t-236 -126.5v-86q0 -80 236 -170q512 -141 512 -322v-150q0 -182 -158 -237 q162 -80 158 -232v-169q0 -213 -512 -213t-512 213v126zM276 618q0 -154 236 -212l106 -17q129 18 130 143v86q0 123 -236 213l-98 27q-137 -25 -138 -153v-87z" />
<glyph unicode="&#xa8;" horiz-adv-x="808" d="M0 1516q0 106 106.5 106t106.5 -106.5t-106.5 -106t-106.5 106.5zM426 1516q0 106 106.5 106t106.5 -106.5t-106.5 -106t-106.5 106.5z" />
<glyph unicode="&#xa9;" horiz-adv-x="1525" d="M0 410q0 -430 639 -430q641 0 641 407v805q0 365 -641 364q-639 0 -639 -407v-739zM213 406v731q0 250 426 249q428 0 428 -247v-738q0 -252 -428 -251q-426 0 -426 256zM256 502q0 -246 383 -246q385 0 385 254v158h-213v-109q0 -133 -172 -133q-170 0 -170 166v356 q0 162 170 162q172 0 172 -162v-104h213v162q0 274 -385 274q-383 0 -383 -268v-510z" />
<glyph unicode="&#xaa;" horiz-adv-x="630" d="M-10 1066v72.5q0 142.5 223 142.5q64.5 0 64.5 41v21.5q0 53 -64.5 53.5q-49 0 -49 -53.5v-21.5h-160v43q0 138 209 138q224.5 0 224 -138v-352q0 -75 43.5 -75h-161q-42 0 -42 57.5q0 -67.5 -90 -67.5q-197.5 0 -197.5 138zM149.5 1087.5q0 -53 63.5 -53 q64.5 0 64.5 78.5v93.5q0 -31.5 -64.5 -32q-63.5 0 -63.5 -57.5v-29.5zM-78 719.408h597.811v148.402h-597.811v-148.402z" />
<glyph unicode="&#xab;" horiz-adv-x="1024" d="M0 731l360 -235v168l-174 102l174 98v176l-360 -225v-84zM410 731l360 -235v168l-174 102l174 98v176l-360 -225v-84z" />
<glyph unicode="&#xac;" horiz-adv-x="1284" d="M131 952v195h1024v-537h-205v342h-819z" />
<glyph unicode="&#xad;" horiz-adv-x="757" d="M123 670h512v188h-512v-188z" />
<glyph unicode="&#xae;" horiz-adv-x="1525" d="M0 410q0 -430 631 -430q649 0 649 407v805q0 365 -647 364q-633 0 -633 -407v-739zM213 406v731q0 250 420 249q434 0 434 -247v-738q0 -252 -440 -251q-414 0 -414 256zM256 342h213v297h233q109 0 109 -86v-119q0 -92 76 -92h196q-59 0 -59 92v158q0 133 -143 133 q143 0 143 154v120q0 195 -264 195h-504v-852zM469 811v213h236q106 0 106 -47v-88q0 -78 -113 -78h-229z" />
<glyph unicode="&#xaf;" horiz-adv-x="1177" d="M2 1614h1176v90h-1176v-90z" />
<glyph unicode="&#x2c9;" horiz-adv-x="1177" d="M2 1614h1176v90h-1176v-90z" />
<glyph unicode="&#xb0;" horiz-adv-x="851" d="M0 1067q0 -213 342 -213q340 0 340 213v256q0 213 -340 213q-342 0 -342 -213v-256zM170 1110v170q0 129 172 129q170 0 170 -129v-170q0 -129 -170 -129q-172 0 -172 129z" />
<glyph unicode="&#xb1;" horiz-adv-x="937" d="M0 832v212h319v320h213v-320h322v-212h-322v-320h-213v320h-319zM0 150h854v212h-854v-212z" />
<glyph unicode="&#xb2;" horiz-adv-x="851" d="M0 768v250q0 176 342 219q127 20 127 106.5t-127 86.5q-129 0 -129 -107v-43h-213v86q0 190 342 190q340 0 340 -190v-86q0 -170 -340 -213q-129 -22 -129 -129h469v-170h-682z" />
<glyph unicode="&#xb3;" horiz-adv-x="894" d="M0 934q0 -186 362.5 -186t362.5 233q0 170 -147 170q147 0 147 172q0 233 -363 233q-362 0 -362 -215v-69h213q0 115 149.5 114.5t149.5 -86.5q0 -84 -106 -83h-130v-130h130q106 0 106 -83q0 -86 -149.5 -86t-149.5 96l-213 -2v-78z" />
<glyph unicode="&#xb4;" horiz-adv-x="512" d="M0 1366l106 256h236l-215 -256h-127z" />
<glyph unicode="&#xb5;" horiz-adv-x="1363" d="M-20 -385v1536h319v-789q0 -127 170 -126.5t170 126.5v789h322v-809q43 -172 233 0v-256q-197 -135 -272 55q-47 -121 -336 -121q-287 0 -287 150v-555h-319z" />
<glyph unicode="&#x3bc;" horiz-adv-x="1363" d="M-20 -385v1536h319v-789q0 -127 170 -126.5t170 126.5v789h322v-809q43 -172 233 0v-256q-197 -135 -272 55q-47 -121 -336 -121q-287 0 -287 150v-555h-319z" />
<glyph unicode="&#xb6;" d="M0 897v340q0 299 385 299h641l-2 -1536h-213v1366h-86v-1366h-213v598h-127q-385 0 -385 299z" />
<glyph unicode="&#xb7;" horiz-adv-x="509" d="M86 686q0 -131 149.5 -131t149.5 131q0 129 -149.5 129t-149.5 -129z" />
<glyph unicode="&#x2219;" horiz-adv-x="509" d="M86 686q0 -131 149.5 -131t149.5 131q0 129 -149.5 129t-149.5 -129z" />
<glyph unicode="&#xb8;" horiz-adv-x="552" d="M0 -240v-49q0 -96 192.5 -96t192.5 96v109q0 94 -76 94q-74 0 -73 -39v168h-86v-256h86v29q0 35 30 34q33 0 33 -43v-71q0 -55 -106.5 -55t-106.5 53v28z" />
<glyph unicode="&#xb9;" horiz-adv-x="552" d="M0 1237h170v-469h215v768h-215q0 -127 -170 -127v-172z" />
<glyph unicode="&#xba;" horiz-adv-x="647" d="M-10 1066q0 -138 244.5 -138q246 0 246 138v299q0 138 -246 138q-244.5 0 -244.5 -138v-299zM149.5 1087.5v256q0 53 85 53.25t85 -53.25v-256q0 -53 -85 -53t-85 53zM-59 719.408h597.811v148.402h-597.811v-148.402z" />
<glyph unicode="&#xbb;" horiz-adv-x="1024" d="M127 496v168l172 102l-172 98v176l360 -225v-84zM537 496v168l172 102l-172 98v176l360 -225v-84z" />
<glyph unicode="&#xbc;" horiz-adv-x="1497" d="M1370 1520l-1071 -1575l-170 55l1088 1575zM311.5 1408h102v-597h160v768h-160q0 -63.5 -102 -63.5v-107.5zM768 95h305v-138h160v138h47v108h-47v522h-106.5l-358.5 -522v-108zM896 203l177 266v-266h-177z" />
<glyph unicode="&#xbd;" horiz-adv-x="1497" d="M1370 1520l-1071 -1575l-170 55l1088 1575zM311.5 1408h102v-597h160v768h-160q0 -63.5 -102 -63.5v-107.5zM854 -68v299q0 106.5 215 149.5l102.5 20.5q56.5 11.5 56.5 64.5v85q0 53 -108 53q-106.5 0 -106.5 -53v-85h-159.5v106.5q0 138 266 138q267.5 0 267.5 -138 v-128q0 -106.5 -216 -149.5l-102.5 -21.5q-55.5 -11.5 -55.5 -63.5v-171h374v-106.5h-533.5z" />
<glyph unicode="&#xbe;" horiz-adv-x="1497" d="M1370 1520l-1071 -1575l-170 55l1088 1575zM127 939q0 -138 266 -138q267.5 0 267.5 138v149.5q0 128 -118 128q118 0 118 128v106.5q0 138 -267.5 138q-266 0 -266 -138v-106.5h159.5v85q0 53 106.5 53q107.5 0 108 -53v-106.5q0 -53 -54.5 -53h-138.5v-106.5h138.5 q54.5 0 54.5 -53.5v-149.5q0 -53 -108 -53q-106.5 0 -106.5 53v85h-159.5v-106.5zM768 95h305v-138h160v138h47v108h-47v522h-106.5l-358.5 -522v-108zM896 203l177 266v-266h-177z" />
<glyph unicode="&#xbf;" d="M1044 43v-213q0 -276 -526 -276q-539 0 -538 276v299q0 231 227 268l184 60q14 25 15 55v129h319v-160q0 -182 -207 -225l-186 -76q-33 -20 -33 -74v-233q0 -106 221 -106q205 0 205 106v170h319zM725 969q0 141 -159.5 141t-159.5 -141t159.5 -141t159.5 141z" />
<glyph unicode="&#xc0;" horiz-adv-x="1382" d="M-12 0l532 1536h240l532 -1536h-331l-138 385h-430l-137 -385h-268zM473 598h283l-146 451zM575 1622l-213 256h256l86 -256h-129z" />
<glyph unicode="&#xc1;" horiz-adv-x="1382" d="M-12 0l532 1536h240l532 -1536h-331l-138 385h-430l-137 -385h-268zM473 598h283l-146 451zM575 1622l106 256h236l-215 -256h-127z" />
<glyph unicode="&#xc2;" horiz-adv-x="1382" d="M-12 0l532 1536h240l532 -1536h-331l-138 385h-430l-137 -385h-268zM473 598h283l-146 451zM301 1706l317 219h43l320 -219l-107 -127l-233 170l-236 -170z" />
<glyph unicode="&#xc3;" horiz-adv-x="1382" d="M-12 0l532 1536h240l532 -1536h-331l-138 385h-430l-137 -385h-268zM473 598h283l-146 451zM256 1579v43q0 213 256 213q106 0 170 -63q66 -66 160 -66q96 0 96 86v43h129v-43q0 -213 -256 -213q-106 0 -169.5 63.5t-162.5 63.5q-96 0 -96 -84v-43h-127z" />
<glyph unicode="&#xc4;" horiz-adv-x="1382" d="M-12 0l532 1536h240l532 -1536h-331l-138 385h-430l-137 -385h-268zM473 598h283l-146 451zM342 1772q0 106 106.5 106t106.5 -106.5t-106.5 -106t-106.5 106.5zM768 1772q0 106 106.5 106t106.5 -106.5t-106.5 -106t-106.5 106.5z" />
<glyph unicode="&#xc5;" horiz-adv-x="1382" d="M-12 0l532 1536h240l532 -1536h-331l-138 385h-430l-137 -385h-268zM473 598h283l-146 451zM811 1685q0 -127 -172 -126q-170 0 -170 126v86q0 129 170 130q172 0 172 -130v-86zM725 1751q0 63 -86 64q-84 0 -84 -64v-43q0 -63 84 -63q86 0 86 63v43z" />
<glyph unicode="&#xc6;" horiz-adv-x="1843" d="M-25 0l813 1536h875v-213h-592v-426h485v-215h-485v-469h592v-213h-903v256h-350l-134 -256h-301zM496 469h264v516z" />
<glyph unicode="&#xc7;" d="M-20 256q0 -276 532 -276t532 276v213h-319v-170q0 -106 -213 -106t-213 106v938q0 129 213 129t213 -129v-170h319v213q0 276 -532 276t-532 -276v-1024zM299 -240v-49q0 -96 192.5 -96t192.5 96v109q0 94 -76 94q-74 0 -73 -39v168h-86v-256h86v29q0 35 30 34 q33 0 33 -43v-71q0 -55 -106.5 -55t-106.5 53v28z" />
<glyph unicode="&#xc8;" horiz-adv-x="1024" d="M-20 0v1536h874v-213h-555v-426h449v-215h-449v-469h555v-213h-874zM383 1622l-213 256h256l86 -256h-129z" />
<glyph unicode="&#xc9;" horiz-adv-x="1024" d="M-20 0v1536h874v-213h-555v-426h449v-215h-449v-469h555v-213h-874zM342 1622l106 256h236l-215 -256h-127z" />
<glyph unicode="&#xca;" horiz-adv-x="1024" d="M-20 0v1536h874v-213h-555v-426h449v-215h-449v-469h555v-213h-874zM88 1663l317 219h43l320 -219l-107 -127l-233 170l-236 -170z" />
<glyph unicode="&#xcb;" horiz-adv-x="1024" d="M-20 0v1536h874v-213h-555v-426h449v-215h-449v-469h555v-213h-874zM127 1772q0 106 106.5 106t106.5 -106.5t-106.5 -106t-106.5 106.5zM553 1772q0 106 106.5 106t106.5 -106.5t-106.5 -106t-106.5 106.5z" />
<glyph unicode="&#xcc;" horiz-adv-x="618" d="M-20 0v170h83v1196h-83v170h489v-170h-84v-1196h84v-170h-489zM127 1622l-213 256h256l86 -256h-129z" />
<glyph unicode="&#xcd;" horiz-adv-x="618" d="M-20 0v170h83v1196h-83v170h489v-170h-84v-1196h84v-170h-489zM127 1622l106 256h236l-215 -256h-127z" />
<glyph unicode="&#xce;" horiz-adv-x="618" d="M-20 0v170h83v1196h-83v170h489v-170h-84v-1196h84v-170h-489zM-148 1663l317 219h43l320 -219l-107 -127l-233 170l-236 -170z" />
<glyph unicode="&#xcf;" horiz-adv-x="618" d="M-20 0v170h83v1196h-83v170h489v-170h-84v-1196h84v-170h-489zM-127 1772q0 106 106.5 106t106.5 -106.5t-106.5 -106t-106.5 106.5zM299 1772q0 106 106.5 106t106.5 -106.5t-106.5 -106t-106.5 106.5z" />
<glyph unicode="&#xd0;" horiz-adv-x="1363" d="M-170 662v212h150v662h745q319 0 319 -256v-1024q0 -256 -319 -256h-745v662h-150zM299 213h299q127 0 127 106v898q0 106 -127 106h-299v-449h150v-212h-150v-449z" />
<glyph unicode="&#xd1;" horiz-adv-x="1107" d="M0 0v1536h256l449 -831v831h233v-1536h-256l-446 831v-831h-236zM86 1579v43q0 213 256 213q106 0 170 -63q66 -66 160 -66q96 0 96 86v43h129v-43q0 -213 -256 -213q-106 0 -169.5 63.5t-162.5 63.5q-96 0 -96 -84v-43h-127z" />
<glyph unicode="&#xd2;" d="M-20 256v1024q0 276 532 276t532 -276v-1024q0 -276 -532 -276t-532 276zM299 299q0 -106 213 -106t213 106v938q0 106 -213 106t-213 -106v-938zM469 1622l-213 256h256l86 -256h-129z" />
<glyph unicode="&#xd3;" d="M-20 256v1024q0 276 532 276t532 -276v-1024q0 -276 -532 -276t-532 276zM299 299q0 -106 213 -106t213 106v938q0 106 -213 106t-213 -106v-938zM426 1622l106 256h236l-215 -256h-127z" />
<glyph unicode="&#xd4;" d="M-20 256v1024q0 276 532 276t532 -276v-1024q0 -276 -532 -276t-532 276zM299 299q0 -106 213 -106t213 106v938q0 106 -213 106t-213 -106v-938zM172 1663l317 219h43l320 -219l-107 -127l-233 170l-236 -170z" />
<glyph unicode="&#xd5;" d="M-20 256v1024q0 276 532 276t532 -276v-1024q0 -276 -532 -276t-532 276zM299 299q0 -106 213 -106t213 106v938q0 106 -213 106t-213 -106v-938zM127 1579v43q0 213 256 213q106 0 170 -63q66 -66 160 -66q96 0 96 86v43h129v-43q0 -213 -256 -213q-106 0 -169.5 63.5 t-162.5 63.5q-96 0 -96 -84v-43h-127z" />
<glyph unicode="&#xd6;" d="M-20 256v1024q0 276 532 276t532 -276v-1024q0 -276 -532 -276t-532 276zM299 299q0 -106 213 -106t213 106v938q0 106 -213 106t-213 -106v-938zM193 1772q0 106 106.5 106t106.5 -106.5t-106.5 -106t-106.5 106.5zM619 1772q0 106 106.5 106t106.5 -106.5t-106.5 -106 t-106.5 106.5z" />
<glyph unicode="&#xd7;" horiz-adv-x="1024" d="M-25 436l332 332l-332 332l119 121l332 -332l332 332l121 -121l-332 -332l332 -332l-121 -121l-332 332l-332 -332z" />
<glyph unicode="&#xd8;" horiz-adv-x="1236" d="M-150 496l130 88v696q0 276 532 276t532 -276v-102l35 20l107 -154l-142 -106v-682q0 -276 -532 -276t-532 276v102l-35 -26zM299 319q0 -127 213 -126.5t213 126.5v449l-426 -281v-168zM299 768l426 268v181q0 127 -209 126q-217 0 -217 -126v-449z" />
<glyph unicode="&#xd9;" d="M-20 256v1280h319v-1237q0 -106 213 -106q256 0 256 106v1237h276v-1280q0 -276 -532 -276t-532 276zM469 1622l-213 256h256l86 -256h-129z" />
<glyph unicode="&#xda;" d="M-20 256v1280h319v-1237q0 -106 213 -106q256 0 256 106v1237h276v-1280q0 -276 -532 -276t-532 276zM426 1622l106 256h236l-215 -256h-127z" />
<glyph unicode="&#xdb;" d="M-20 256v1280h319v-1237q0 -106 213 -106q256 0 256 106v1237h276v-1280q0 -276 -532 -276t-532 276zM172 1663l317 219h43l320 -219l-107 -127l-233 170l-236 -170z" />
<glyph unicode="&#xdc;" d="M-20 256v1280h319v-1237q0 -106 213 -106q256 0 256 106v1237h276v-1280q0 -276 -532 -276t-532 276zM213 1772q0 106 106.5 106t106.5 -106.5t-106.5 -106t-106.5 106.5zM639 1772q0 106 106.5 106t106.5 -106.5t-106.5 -106t-106.5 106.5z" />
<glyph unicode="&#xdd;" horiz-adv-x="1339" d="M-12 1536l473 -981v-555h311v555l465 981h-256l-328 -729l-321 729h-344zM555 1622l106 256h236l-215 -256h-127z" />
<glyph unicode="&#xde;" horiz-adv-x="1236" d="M-20 0v1536h319v-236h340q406 0 405 -319v-342q0 -319 -405 -320h-340v-319h-319zM299 532h256q170 0 170 150v256q0 150 -170 149h-256v-555z" />
<glyph unicode="&#xdf;" d="M-63 205h83v-205h322v1194q0 193 190 192q193 0 193 -192v-84q0 -172 -170 -172h-149v-170h149q193 0 193 -170v-299q0 -150 -66 -149q-84 0 -84 149h-213v-43q0 -276 297 -276q362 0 362 276v383q0 215 -319 215q299 0 299 213v170q0 319 -481 319q-522 0 -523 -319 v-870h-83v-162z" />
<glyph unicode="&#xe0;" horiz-adv-x="1024" d="M-20 256v145q0 285 446 285q129 0 129 82v43q0 106 -129 107q-98 0 -98 -107v-43h-320v86q0 276 418 276q449 0 448 -276v-704q0 -150 87 -150h-322q-84 0 -84 115q0 -135 -180 -135q-395 0 -395 276zM299 299q0 -106 127 -106q129 0 129 157v187q0 -63 -129 -64 q-127 0 -127 -115v-59zM383 1196l-213 256h256l86 -256h-129z" />
<glyph unicode="&#xe1;" horiz-adv-x="1024" d="M-20 256v145q0 285 446 285q129 0 129 82v43q0 106 -129 107q-98 0 -98 -107v-43h-320v86q0 276 418 276q449 0 448 -276v-704q0 -150 87 -150h-322q-84 0 -84 115q0 -135 -180 -135q-395 0 -395 276zM299 299q0 -106 127 -106q129 0 129 157v187q0 -63 -129 -64 q-127 0 -127 -115v-59zM342 1196l106 256h236l-215 -256h-127z" />
<glyph unicode="&#xe2;" horiz-adv-x="1024" d="M-20 256v145q0 285 446 285q129 0 129 82v43q0 106 -129 107q-98 0 -98 -107v-43h-320v86q0 276 418 276q449 0 448 -276v-704q0 -150 87 -150h-322q-84 0 -84 115q0 -135 -180 -135q-395 0 -395 276zM299 299q0 -106 127 -106q129 0 129 157v187q0 -63 -129 -64 q-127 0 -127 -115v-59zM88 1364l317 219h43l320 -219l-107 -127l-233 170l-236 -170z" />
<glyph unicode="&#xe3;" horiz-adv-x="1024" d="M-20 256v145q0 285 446 285q129 0 129 82v43q0 106 -129 107q-98 0 -98 -107v-43h-320v86q0 276 418 276q449 0 448 -276v-704q0 -150 87 -150h-322q-84 0 -84 115q0 -135 -180 -135q-395 0 -395 276zM299 299q0 -106 127 -106q129 0 129 157v187q0 -63 -129 -64 q-127 0 -127 -115v-59zM43 1237v43q0 213 256 213q106 0 170 -63q66 -66 160 -66q96 0 96 86v43h129v-43q0 -213 -256 -213q-106 0 -169.5 63.5t-162.5 63.5q-96 0 -96 -84v-43h-127z" />
<glyph unicode="&#xe4;" horiz-adv-x="1024" d="M-20 256v145q0 285 446 285q129 0 129 82v43q0 106 -129 107q-98 0 -98 -107v-43h-320v86q0 276 418 276q449 0 448 -276v-704q0 -150 87 -150h-322q-84 0 -84 115q0 -135 -180 -135q-395 0 -395 276zM299 299q0 -106 127 -106q129 0 129 157v187q0 -63 -129 -64 q-127 0 -127 -115v-59zM127 1346q0 106 106.5 106t106.5 -106.5t-106.5 -106t-106.5 106.5zM553 1346q0 106 106.5 106t106.5 -106.5t-106.5 -106t-106.5 106.5z" />
<glyph unicode="&#xe5;" horiz-adv-x="1024" d="M-20 256v145q0 285 446 285q129 0 129 82v43q0 106 -129 107q-98 0 -98 -107v-43h-320v86q0 276 418 276q449 0 448 -276v-704q0 -150 87 -150h-322q-84 0 -84 115q0 -135 -180 -135q-395 0 -395 276zM299 299q0 -106 127 -106q129 0 129 157v187q0 -63 -129 -64 q-127 0 -127 -115v-59zM598 1300q0 -127 -172 -126q-170 0 -170 126v86q0 129 170 130q172 0 172 -130v-86zM512 1366q0 63 -86 64q-84 0 -84 -64v-43q0 -63 84 -63q86 0 86 63v43z" />
<glyph unicode="&#xe6;" horiz-adv-x="1730" d="M-20 256v145q0 285 442 285q141 0 141 82v43q0 106 -117 107q-119 0 -118 -107v-43h-320v86q0 276 414 276q211 0 295 -126q84 127 327 126q492 0 492 -276v-405h-662v-107q0 -150 170 -149q172 0 173 106v43h319v-86q0 -276 -492 -276q-285 0 -327 170 q-43 -170 -346 -170q-391 0 -391 276zM299 299q0 -106 127 -106q137 0 137 157v201q0 -78 -137 -78q-127 0 -127 -115v-59zM874 662h343v149q0 106 -173 107q-170 0 -170 -107v-149z" />
<glyph unicode="&#xe7;" horiz-adv-x="1107" d="M-20 256q0 -276 489 -276q492 0 492 276v170h-343v-127q0 -106 -149 -106q-170 0 -170 106v512q0 106 170 107q150 0 149 -107v-129h343v172q0 276 -492 276q-489 0 -489 -276v-598zM256 -240v-49q0 -96 192.5 -96t192.5 96v109q0 94 -76 94q-74 0 -73 -39v168h-86v-256 h86v29q0 35 30 34q33 0 33 -43v-71q0 -55 -106.5 -55t-106.5 53v28z" />
<glyph unicode="&#xe8;" horiz-adv-x="1107" d="M-20 256q0 -276 489 -276q492 0 492 276v86h-322v-43q0 -106 -170 -106t-170 106v150h662v405q0 276 -492 276q-489 0 -489 -276v-598zM299 662v149q0 106 170 106.5t170 -106.5v-149h-340zM426 1196l-213 256h256l86 -256h-129z" />
<glyph unicode="&#xe9;" horiz-adv-x="1107" d="M-20 256q0 -276 489 -276q492 0 492 276v86h-322v-43q0 -106 -170 -106t-170 106v150h662v405q0 276 -492 276q-489 0 -489 -276v-598zM299 662v149q0 106 170 106.5t170 -106.5v-149h-340zM342 1196l106 256h236l-215 -256h-127z" />
<glyph unicode="&#xea;" horiz-adv-x="1107" d="M-20 256q0 -276 489 -276q492 0 492 276v86h-322v-43q0 -106 -170 -106t-170 106v150h662v405q0 276 -492 276q-489 0 -489 -276v-598zM299 662v149q0 106 170 106.5t170 -106.5v-149h-340zM129 1364l317 219h43l320 -219l-107 -127l-233 170l-236 -170z" />
<glyph unicode="&#xeb;" horiz-adv-x="1107" d="M-20 256q0 -276 489 -276q492 0 492 276v86h-322v-43q0 -106 -170 -106t-170 106v150h662v405q0 276 -492 276q-489 0 -489 -276v-598zM299 662v149q0 106 170 106.5t170 -106.5v-149h-340zM150 1346q0 106 106.5 106t106.5 -106.5t-106.5 -106t-106.5 106.5zM576 1346 q0 106 106.5 106t106.5 -106.5t-106.5 -106t-106.5 106.5z" />
<glyph unicode="&#xec;" horiz-adv-x="446" d="M0 1110v-1110h319v1110h-319zM43 1196l-213 256h256l86 -256h-129z" />
<glyph unicode="&#xed;" horiz-adv-x="446" d="M0 1110v-1110h319v1110h-319zM43 1196l106 256h236l-215 -256h-127z" />
<glyph unicode="&#xee;" horiz-adv-x="446" d="M0 1110v-1110h319v1110h-319zM-234 1323l317 219h43l320 -219l-107 -127l-233 170l-236 -170z" />
<glyph unicode="&#xef;" horiz-adv-x="446" d="M0 1110v-1110h319v1110h-319zM-213 1389q0 106 106.5 106t106.5 -106.5t-106.5 -106t-106.5 106.5zM213 1389q0 106 106.5 106t106.5 -106.5t-106.5 -106t-106.5 106.5z" />
<glyph unicode="&#xf0;" horiz-adv-x="1280" d="M-20 256v555q0 276 536 276q246 0 252 -126v106q0 63 -12 84l-117 -64l-59 99l120 63q-101 74 -356 74h-192v213h200q457 0 609 -133l110 74l59 -91l-108 -73q66 -84 65 -180v-877q0 -276 -573 -276q-534 0 -534 276zM299 342q0 -150 225 -149q244 0 244 149v383 q0 150 -252 149q-217 0 -217 -149v-383z" />
<glyph unicode="&#xf1;" horiz-adv-x="1107" d="M-20 0h319v788q0 129 170 129.5t170 -129.5v-788h322v854q0 276 -332 276q-330 0 -330 -169v149h-319v-1110zM63 1280v43q0 213 256 213q106 0 170 -63q66 -66 160 -66q96 0 96 86v43h129v-43q0 -213 -256 -213q-106 0 -169.5 63.5t-162.5 63.5q-96 0 -96 -84v-43h-127z " />
<glyph unicode="&#xf2;" horiz-adv-x="1107" d="M-20 256q0 -276 489 -276q492 0 492 276v598q0 276 -492 276q-489 0 -489 -276v-598zM299 299v512q0 106 170 106.5t170 -106.5v-512q0 -106 -170 -106t-170 106zM426 1196l-213 256h256l86 -256h-129z" />
<glyph unicode="&#xf3;" horiz-adv-x="1107" d="M-20 256q0 -276 489 -276q492 0 492 276v598q0 276 -492 276q-489 0 -489 -276v-598zM299 299v512q0 106 170 106.5t170 -106.5v-512q0 -106 -170 -106t-170 106zM426 1196l106 256h236l-215 -256h-127z" />
<glyph unicode="&#xf4;" horiz-adv-x="1107" d="M-20 256q0 -276 489 -276q492 0 492 276v598q0 276 -492 276q-489 0 -489 -276v-598zM299 299v512q0 106 170 106.5t170 -106.5v-512q0 -106 -170 -106t-170 106zM129 1364l317 219h43l320 -219l-107 -127l-233 170l-236 -170z" />
<glyph unicode="&#xf5;" horiz-adv-x="1107" d="M-20 256q0 -276 489 -276q492 0 492 276v598q0 276 -492 276q-489 0 -489 -276v-598zM299 299v512q0 106 170 106.5t170 -106.5v-512q0 -106 -170 -106t-170 106zM63 1280v43q0 213 256 213q106 0 170 -63q66 -66 160 -66q96 0 96 86v43h129v-43q0 -213 -256 -213 q-106 0 -169.5 63.5t-162.5 63.5q-96 0 -96 -84v-43h-127z" />
<glyph unicode="&#xf6;" horiz-adv-x="1107" d="M-20 256q0 -276 489 -276q492 0 492 276v598q0 276 -492 276q-489 0 -489 -276v-598zM299 299v512q0 106 170 106.5t170 -106.5v-512q0 -106 -170 -106t-170 106zM150 1346q0 106 106.5 106t106.5 -106.5t-106.5 -106t-106.5 106.5zM576 1346q0 106 106.5 106 t106.5 -106.5t-106.5 -106t-106.5 106.5z" />
<glyph unicode="&#xf7;" horiz-adv-x="1024" d="M0 682h854v172h-854v-172zM299 426q0 -127 127 -127q129 0 129 127q0 129 -129 129q-127 0 -127 -129zM299 1110q0 -129 127 -129q129 0 129 129q0 127 -129 127q-127 0 -127 -127z" />
<glyph unicode="&#xf8;" horiz-adv-x="1150" d="M-115 137l95 84v633q0 276 489 276q313 -4 381 -92l55 54l144 -103l-88 -106v-627q0 -276 -492 -276q-256 0 -383 81l-51 -45zM299 508l332 336q-25 78 -162 74q-170 0 -170 -107v-303zM315 240q12 -47 154 -47q170 0 170 106v264z" />
<glyph unicode="&#xf9;" horiz-adv-x="1107" d="M-20 256q0 -276 329.5 -276t329.5 170v-150h322v1110h-322v-791q0 -127 -170 -126.5t-170 126.5v791h-319v-854zM426 1196l-213 256h256l86 -256h-129z" />
<glyph unicode="&#xfa;" horiz-adv-x="1107" d="M-20 256q0 -276 329.5 -276t329.5 170v-150h322v1110h-322v-791q0 -127 -170 -126.5t-170 126.5v791h-319v-854zM342 1196l106 256h236l-215 -256h-127z" />
<glyph unicode="&#xfb;" horiz-adv-x="1107" d="M-20 256q0 -276 329.5 -276t329.5 170v-150h322v1110h-322v-791q0 -127 -170 -126.5t-170 126.5v791h-319v-854zM129 1407l317 219h43l320 -219l-107 -127l-233 170l-236 -170z" />
<glyph unicode="&#xfc;" horiz-adv-x="1107" d="M-20 256q0 -276 329.5 -276t329.5 170v-150h322v1110h-322v-791q0 -127 -170 -126.5t-170 126.5v791h-319v-854zM150 1346q0 106 106.5 106t106.5 -106.5t-106.5 -106t-106.5 106.5zM576 1346q0 106 106.5 106t106.5 -106.5t-106.5 -106t-106.5 106.5z" />
<glyph unicode="&#xfd;" d="M-8 1110h340l270 -729l252 729h238l-502 -1294q-70 -221 -244 -222h-158v213h111q53 0 80 64l49 113zM469 1196l106 256h236l-215 -256h-127z" />
<glyph unicode="&#xfe;" horiz-adv-x="1150" d="M-20 -406h319v556q0 -170 330 -170q332 0 332 276v598q0 276 -332 276q-330 0 -330 -169v575h-319v-1942zM299 319v469q0 129 170 129.5t170 -129.5v-469q0 -127 -170 -127t-170 127z" />
<glyph unicode="&#xff;" d="M-8 1110h340l270 -729l252 729h238l-502 -1294q-70 -221 -244 -222h-158v213h111q53 0 80 64l49 113zM221 1346q0 106 106.5 106t106.5 -106.5t-106.5 -106t-106.5 106.5zM647 1346q0 106 106.5 106t106.5 -106.5t-106.5 -106t-106.5 106.5z" />
<glyph unicode="&#x131;" horiz-adv-x="489" d="M0 1110v-1110h319v1110h-319z" />
<glyph unicode="&#x152;" horiz-adv-x="1812" d="M0 256v1024q0 276 532 276q152 0 216 -63v43h874v-213h-555v-426h449v-215h-449v-489h555v-193h-874v43q-63 -63 -216 -63q-532 0 -532 276zM319 319q0 -127 213 -126q215 0 216 126v898q0 127 -216 126q-213 0 -213 -126v-898z" />
<glyph unicode="&#x153;" horiz-adv-x="1812" d="M-20 256v598q0 276 489 276q215 0 299 -75q84 76 362 75q492 0 492 -276v-405h-661v-150q0 -106 169.5 -106t169.5 106v86h322v-129q0 -276 -492 -276q-279 0 -362 75q-84 -76 -299 -75q-489 0 -489 276zM299 299q0 -106 170 -106t170 106v512q0 106 -170 106.5 t-170 -106.5v-512zM961 662h339v149q0 106 -169.5 106.5t-169.5 -106.5v-149z" />
<glyph unicode="&#x178;" horiz-adv-x="1339" d="M-12 1536l473 -981v-555h311v555l465 981h-256l-328 -729l-321 729h-344zM299 1772q0 106 106.5 106t106.5 -106.5t-106.5 -106t-106.5 106.5zM725 1772q0 106 106.5 106t106.5 -106.5t-106.5 -106t-106.5 106.5z" />
<glyph unicode="&#x2c6;" horiz-adv-x="851" d="M2 1450l317 219h43l320 -219l-107 -127l-233 170l-236 -170z" />
<glyph unicode="&#x2da;" horiz-adv-x="512" d="M342 1300q0 -127 -172 -126q-170 0 -170 126v86q0 129 170 130q172 0 172 -130v-86zM256 1366q0 63 -86 64q-84 0 -84 -64v-43q0 -63 84 -63q86 0 86 63v43z" />
<glyph unicode="&#x2dc;" horiz-adv-x="980" d="M0 1323v43q0 213 256 213q106 0 170 -63q66 -66 160 -66q96 0 96 86v43h129v-43q0 -213 -256 -213q-106 0 -169.5 63.5t-162.5 63.5q-96 0 -96 -84v-43h-127z" />
<glyph unicode="&#x2000;" horiz-adv-x="962" />
<glyph unicode="&#x2001;" horiz-adv-x="1925" />
<glyph unicode="&#x2002;" horiz-adv-x="962" />
<glyph unicode="&#x2003;" horiz-adv-x="1925" />
<glyph unicode="&#x2004;" horiz-adv-x="641" />
<glyph unicode="&#x2005;" horiz-adv-x="481" />
<glyph unicode="&#x2006;" horiz-adv-x="319" />
<glyph unicode="&#x2007;" horiz-adv-x="319" />
<glyph unicode="&#x2008;" horiz-adv-x="239" />
<glyph unicode="&#x2009;" horiz-adv-x="382" />
<glyph unicode="&#x200a;" horiz-adv-x="106" />
<glyph unicode="&#x2010;" horiz-adv-x="1024" d="M0 662h854v212h-854v-212z" />
<glyph unicode="&#x2011;" horiz-adv-x="1024" d="M0 662h854v212h-854v-212z" />
<glyph unicode="&#x2012;" horiz-adv-x="1024" d="M0 662h854v212h-854v-212z" />
<glyph unicode="&#x2013;" horiz-adv-x="1576" d="M127 662h1323v212h-1323v-212z" />
<glyph unicode="&#x2014;" horiz-adv-x="1961" d="M127 662h1708v212h-1708v-212z" />
<glyph unicode="&#x2018;" horiz-adv-x="425" d="M-20 1280q0 -129 126 -129q129 0 130 129q0 129 -130 129q0 106 130 107v63q-256 0 -256 -299z" />
<glyph unicode="&#x2019;" horiz-adv-x="425" d="M-43 1151q256 0 256 299q0 129 -127 129q-129 0 -129 -129q0 -127 129 -127q0 -106 -129 -106v-66z" />
<glyph unicode="&#x201a;" horiz-adv-x="425" d="M-43 20q0 -147 129 -147q127 0 127 147q0 106 -127 107q0 109 127 109v63q-256 0 -256 -279z" />
<glyph unicode="&#x201c;" horiz-adv-x="768" d="M-43 1280q0 -129 129 -129q127 0 127 129t-127 129q0 106 127 107v63q-256 0 -256 -299zM299 1280q0 -129 127 -129q129 0 129 129t-129 129q0 106 129 107v63q-256 0 -256 -299z" />
<glyph unicode="&#x201d;" horiz-adv-x="768" d="M-43 1151q256 0 256 299q0 129 -127 129q-129 0 -129 -129q0 -127 129 -127q0 -106 -129 -106v-66zM299 1151q256 0 256 299q0 129 -129 129q-127 0 -127 -129q0 -127 127 -127q0 -106 -127 -106v-66z" />
<glyph unicode="&#x201e;" horiz-adv-x="768" d="M-43 20q0 -147 129 -147q127 0 127 147q0 106 -127 107q0 109 127 109v63q-256 0 -256 -279zM299 20q0 -147 127 -147q129 0 129 147q0 106 -129 107q0 109 129 109v63q-256 0 -256 -279z" />
<glyph unicode="&#x2022;" horiz-adv-x="614" d="M0 759.5q0 -184.5 178 -184.5q176 0 176 184.5t-176 184.5q-178 0 -178 -184.5z" />
<glyph unicode="&#x2026;" horiz-adv-x="675" d="M0 139q0 -139 157.5 -139t157.5 139q0 143 -157.5 143t-157.5 -143zM426 139q0 -139 157.5 -139t157.5 139q0 143 -157.5 143t-157.5 -143zM854 139q0 -139 157.5 -139t157.5 139q0 143 -157.5 143t-157.5 -143z" />
<glyph unicode="&#x202f;" horiz-adv-x="382" />
<glyph unicode="&#x2039;" horiz-adv-x="528" d="M0 731l360 -235v168l-174 102l174 98v176l-360 -225v-84z" />
<glyph unicode="&#x203a;" horiz-adv-x="528" d="M-2 496v168l174 102l-174 98v176l360 -225v-84z" />
<glyph unicode="&#x2044;" horiz-adv-x="1497" d="M1370 1520l-1071 -1575l-170 55l1088 1575z" />
<glyph unicode="&#x205f;" horiz-adv-x="481" />
<glyph unicode="&#x2122;" horiz-adv-x="1406" d="M0 1429.5h189.5v-661.5h156.5v661.5h189.5v106.5h-535.5v-106.5zM598 768h118v514l138 -514h159.5l139.5 484.5v-484.5h160v768h-171.5l-173 -565l-178 565h-192.5v-768z" />
<glyph unicode="&#xe000;" horiz-adv-x="1110" d="M0 1110h1110v-1110h-1110v1110z" />
<glyph unicode="&#xfb01;" horiz-adv-x="1206" d="M678 1447.5q0 -147.5 178 -147.5q176 0 176 147.5t-176 147.5q-178 0 -178 -147.5zM697 0h319v1110h-319v-1110zM0 897h98v-897h320v897h129v213h-129v150q0 106 129 106v213h-203q-246 0 -246 -256v-213h-98v-213z" />
<glyph unicode="&#xfb02;" horiz-adv-x="1206" d="M717 0h319v1579h-319v-1579zM0 897h98v-897h320v897h129v213h-129v150q0 106 129 106v213h-203q-246 0 -246 -256v-213h-98v-213z" />
<glyph unicode="&#xfb03;" horiz-adv-x="1923" d="M1395 1447.5q0 -147.5 178 -147.5q176 0 176 147.5t-176 147.5q-178 0 -178 -147.5zM1414 0h319v1110h-319v-1110zM717 897h98v-897h320v897h129v213h-129v150q0 106 129 106v213h-203q-246 0 -246 -256v-213h-98v-213zM0 897h98v-897h320v897h129v213h-129v150 q0 106 129 106v213h-203q-246 0 -246 -256v-213h-98v-213z" />
<glyph unicode="&#xfb04;" horiz-adv-x="1923" d="M1434 0h319v1579h-319v-1579zM717 897h98v-897h320v897h129v213h-129v150q0 106 129 106v213h-203q-246 0 -246 -256v-213h-98v-213zM0 897h98v-897h320v897h129v213h-129v150q0 106 129 106v213h-203q-246 0 -246 -256v-213h-98v-213z" />
<glyph horiz-adv-x="512" d="M213 1366l-213 256h256l86 -256h-129z" />
</font>
</defs>
</svg>
